<svg xmlns="http://www.w3.org/2000/svg" xmlns:xlink="http://www.w3.org/1999/xlink" width="76" height="76" viewBox="-3 -3 70 70" version="1.1" transform="matrix(1, 0, 0, 1, 0, 0)"><g id="deeditor_bgCarrier" stroke-width="0">
  <rect id="dee_c_e" x="-3" y="-3" width="70" height="70" rx="38.4" fill="#ff1100" strokewidth="0"/>
</g><g id="surface1"><path style=" stroke:none;fill-rule:nonzero;fill:#f32124;fill-opacity:1;" d="M 31.976562 59.464844 C 24.328125 59.464844 16.675781 59.449219 9.027344 59.476562 C 6.832031 59.480469 4.625 57.722656 4.386719 55.339844 C 4.355469 55.058594 4.339844 54.777344 4.339844 54.492188 C 4.339844 39.449219 4.339844 24.402344 4.339844 9.359375 C 4.339844 7 5.816406 5.148438 8.117188 4.617188 C 8.371094 4.558594 8.625 4.527344 8.886719 4.527344 C 24.273438 4.527344 39.660156 4.519531 55.046875 4.539062 C 56.773438 4.542969 58.078125 5.414062 58.960938 6.886719 C 59.433594 7.664062 59.605469 8.523438 59.605469 9.429688 C 59.601562 24.492188 59.605469 39.554688 59.605469 54.617188 C 59.605469 56.753906 58.441406 58.449219 56.441406 59.214844 C 55.980469 59.390625 55.5 59.464844 55.003906 59.464844 C 47.328125 59.464844 39.652344 59.464844 31.976562 59.464844 Z M 43.863281 36.332031 C 43.867188 36.332031 43.867188 36.332031 43.871094 36.332031 C 43.871094 35.0625 43.863281 33.796875 43.875 32.527344 C 43.878906 32.308594 43.8125 32.261719 43.605469 32.265625 C 42.636719 32.277344 41.664062 32.277344 40.691406 32.265625 C 40.453125 32.261719 40.398438 32.320312 40.398438 32.558594 C 40.40625 34.453125 40.394531 36.351562 40.40625 38.25 C 40.40625 38.472656 40.328125 38.554688 40.136719 38.617188 C 39.101562 38.957031 38.046875 39.058594 36.972656 38.921875 C 35.203125 38.691406 33.785156 37.871094 32.824219 36.363281 C 31.835938 34.8125 31.589844 33.097656 31.832031 31.304688 C 32.328125 27.6875 35.488281 25.351562 39.101562 25.898438 C 40.183594 26.0625 41.21875 26.359375 42.203125 26.828125 C 42.394531 26.921875 42.472656 26.882812 42.558594 26.699219 C 42.859375 26.058594 43.179688 25.421875 43.492188 24.785156 C 43.65625 24.457031 43.660156 24.449219 43.320312 24.296875 C 40.898438 23.183594 38.371094 22.867188 35.761719 23.378906 C 30.765625 24.363281 27.53125 29.128906 28.429688 34.109375 C 29.230469 38.5625 32.851562 41.359375 37.144531 41.628906 C 39.421875 41.769531 41.578125 41.230469 43.6875 40.441406 C 43.851562 40.378906 43.867188 40.28125 43.867188 40.136719 C 43.863281 38.867188 43.863281 37.601562 43.863281 36.332031 Z M 11.523438 32.460938 C 11.535156 32.996094 11.566406 33.578125 11.671875 34.15625 C 12.207031 37.078125 13.75 39.285156 16.421875 40.648438 C 18.246094 41.582031 20.199219 41.816406 22.214844 41.558594 C 23.683594 41.371094 25.046875 40.875 26.289062 40.066406 C 26.441406 39.964844 26.464844 39.890625 26.371094 39.734375 C 25.996094 39.109375 25.628906 38.480469 25.273438 37.847656 C 25.191406 37.710938 25.136719 37.671875 24.988281 37.761719 C 23.648438 38.558594 22.183594 38.84375 20.640625 38.824219 C 19.273438 38.808594 18.101562 38.320312 17.113281 37.398438 C 15.109375 35.519531 14.433594 32.347656 15.453125 29.683594 C 16.378906 27.28125 18.421875 25.898438 21 25.992188 C 22.425781 26.046875 23.738281 26.507812 24.886719 27.363281 C 25.042969 27.476562 25.09375 27.453125 25.183594 27.308594 C 25.578125 26.667969 25.976562 26.027344 26.390625 25.398438 C 26.496094 25.238281 26.476562 25.160156 26.328125 25.0625 C 26.148438 24.945312 25.988281 24.804688 25.808594 24.6875 C 23.714844 23.3125 21.417969 22.898438 18.964844 23.296875 C 16.644531 23.675781 14.734375 24.773438 13.324219 26.671875 C 12.0625 28.375 11.558594 30.320312 11.523438 32.460938 Z M 47.871094 32.402344 C 47.875 32.402344 47.875 32.402344 47.875 32.402344 C 47.875 35.273438 47.878906 38.148438 47.871094 41.019531 C 47.871094 41.234375 47.917969 41.308594 48.148438 41.304688 C 49.066406 41.289062 49.984375 41.292969 50.902344 41.300781 C 51.097656 41.304688 51.179688 41.273438 51.179688 41.046875 C 51.171875 35.28125 51.167969 29.519531 51.171875 23.753906 C 51.171875 23.570312 51.125 23.511719 50.933594 23.515625 C 50.007812 23.523438 49.082031 23.527344 48.15625 23.511719 C 47.910156 23.507812 47.867188 23.585938 47.867188 23.808594 C 47.875 26.671875 47.871094 29.539062 47.871094 32.402344 Z M 47.554688 19.457031 C 47.558594 20.523438 48.417969 21.386719 49.484375 21.390625 C 50.558594 21.398438 51.433594 20.523438 51.433594 19.445312 C 51.433594 18.367188 50.566406 17.511719 49.476562 17.515625 C 48.40625 17.523438 47.550781 18.386719 47.554688 19.457031 Z M 47.554688 19.457031 "/><path style=" stroke:none;fill-rule:nonzero;fill:#ffffff;fill-opacity:1;" d="M 43.863281 36.332031 C 43.863281 37.601562 43.863281 38.867188 43.867188 40.136719 C 43.867188 40.28125 43.851562 40.378906 43.6875 40.441406 C 41.578125 41.230469 39.421875 41.769531 37.144531 41.628906 C 32.851562 41.359375 29.230469 38.5625 28.429688 34.109375 C 27.53125 29.128906 30.765625 24.363281 35.761719 23.378906 C 38.371094 22.867188 40.902344 23.183594 43.324219 24.296875 C 43.660156 24.449219 43.65625 24.457031 43.492188 24.785156 C 43.179688 25.421875 42.859375 26.058594 42.558594 26.699219 C 42.472656 26.882812 42.394531 26.921875 42.203125 26.828125 C 41.21875 26.359375 40.183594 26.0625 39.101562 25.898438 C 35.488281 25.351562 32.328125 27.6875 31.832031 31.304688 C 31.589844 33.097656 31.835938 34.8125 32.824219 36.363281 C 33.785156 37.871094 35.203125 38.691406 36.972656 38.921875 C 38.046875 39.058594 39.101562 38.960938 40.136719 38.617188 C 40.328125 38.554688 40.40625 38.472656 40.40625 38.25 C 40.394531 36.351562 40.40625 34.453125 40.398438 32.558594 C 40.398438 32.320312 40.453125 32.261719 40.691406 32.265625 C 41.664062 32.277344 42.636719 32.277344 43.605469 32.265625 C 43.8125 32.261719 43.878906 32.308594 43.875 32.527344 C 43.863281 33.796875 43.871094 35.0625 43.871094 36.332031 C 43.867188 36.332031 43.867188 36.332031 43.863281 36.332031 Z M 43.863281 36.332031 "/><path style=" stroke:none;fill-rule:nonzero;fill:#ffffff;fill-opacity:1;" d="M 11.523438 32.460938 C 11.558594 30.320312 12.0625 28.375 13.324219 26.671875 C 14.734375 24.773438 16.644531 23.675781 18.964844 23.296875 C 21.417969 22.898438 23.714844 23.3125 25.808594 24.6875 C 25.988281 24.804688 26.148438 24.945312 26.328125 25.0625 C 26.476562 25.160156 26.496094 25.238281 26.390625 25.398438 C 25.976562 26.027344 25.578125 26.667969 25.183594 27.308594 C 25.09375 27.453125 25.042969 27.476562 24.886719 27.363281 C 23.738281 26.507812 22.425781 26.046875 21 25.992188 C 18.421875 25.898438 16.378906 27.28125 15.453125 29.683594 C 14.433594 32.347656 15.109375 35.519531 17.113281 37.398438 C 18.101562 38.320312 19.273438 38.808594 20.640625 38.824219 C 22.183594 38.84375 23.648438 38.558594 24.988281 37.761719 C 25.136719 37.671875 25.191406 37.710938 25.273438 37.847656 C 25.628906 38.480469 25.996094 39.109375 26.371094 39.734375 C 26.464844 39.890625 26.441406 39.964844 26.289062 40.066406 C 25.046875 40.875 23.683594 41.371094 22.214844 41.558594 C 20.199219 41.816406 18.246094 41.582031 16.421875 40.648438 C 13.75 39.285156 12.207031 37.078125 11.671875 34.15625 C 11.566406 33.578125 11.535156 32.996094 11.523438 32.460938 Z M 11.523438 32.460938 "/><path style=" stroke:none;fill-rule:nonzero;fill:#ffffff;fill-opacity:1;" d="M 47.871094 32.402344 C 47.871094 29.539062 47.875 26.671875 47.867188 23.808594 C 47.867188 23.585938 47.910156 23.507812 48.15625 23.511719 C 49.082031 23.527344 50.011719 23.523438 50.9375 23.515625 C 51.125 23.511719 51.171875 23.570312 51.171875 23.753906 C 51.167969 29.519531 51.171875 35.28125 51.179688 41.046875 C 51.179688 41.273438 51.097656 41.304688 50.902344 41.300781 C 49.984375 41.292969 49.066406 41.289062 48.148438 41.304688 C 47.917969 41.308594 47.871094 41.234375 47.871094 41.019531 C 47.878906 38.148438 47.875 35.273438 47.875 32.402344 C 47.875 32.402344 47.875 32.402344 47.871094 32.402344 Z M 47.871094 32.402344 "/><path style=" stroke:none;fill-rule:nonzero;fill:rgb(99.607843%,98.823529%,99.215686%);fill-opacity:1;" d="M 47.554688 19.457031 C 47.550781 18.386719 48.40625 17.523438 49.476562 17.515625 C 50.566406 17.511719 51.433594 18.367188 51.433594 19.445312 C 51.433594 20.523438 50.558594 21.398438 49.484375 21.390625 C 48.417969 21.386719 47.558594 20.523438 47.554688 19.457031 Z M 47.554688 19.457031 "/></g></svg>